#!OML:ASF F:\VICON\USERDATA\INSTALL\rory3\rory3.ASF
:FULLY-SPECIFIED
:DEGREES
435
root 12.7939 18.2353 14.1848 287.143 -83.4427 69.475
lowerback 10.0132 -2.95449 -5.79766
upperback 2.43106 -4.51025 3.73759
thorax -2.30396 -2.29487 7.72013
lowerneck 0.857949 -9.40682 -11.4034
upperneck 39.9892 -21.3483 9.14434
head 16.7696 -10.9032 2.61156
rclavicle -3.37934e-014 2.38542e-014
rhumerus -54.1274 -28.9475 -58.6944
rradius 23.7384
rwrist 12.7073
rhand -15.4962 5.57272
rfingers 7.12502
rthumb 10.6861 -24.1355
lclavicle -3.37934e-014 2.38542e-014
lhumerus -34.2865 6.89583 80.4527
lradius 31.0265
lwrist -4.74974
lhand -15.3641 24.6242
lfingers 7.12502
lthumb 10.8136 54.3258
rfemur -7.6498 5.63136 13.8136
rtibia 60.6876
rfoot 1.02144 2.46458
rtoes 0.994645
lfemur -2.72949 -0.601437 -24.6808
ltibia 16.3162
lfoot -0.943047 -11.8106
ltoes -20.475
436
root 12.907 18.2286 14.1562 287.292 -83.7131 69.4542
lowerback 9.74971 -2.83229 -5.42431
upperback 2.4471 -4.29713 3.76627
thorax -2.20527 -2.19336 7.49557
lowerneck 0.51083 -9.14382 -11.1841
upperneck 40.2144 -20.7604 8.84007
head 16.7851 -10.6313 2.5316
rclavicle -1.19271e-015 -1.74931e-014
rhumerus -53.9586 -28.8579 -59.1227
rradius 24.0558
rwrist 12.2957
rhand -15.6605 5.63337
rfingers 7.12502
rthumb 10.5276 -24.083
lclavicle -1.19271e-015 -1.74931e-014
lhumerus -34.4802 7.4017 80.2315
lradius 30.693
lwrist -5.0334
lhand -16.4787 25.0144
lfingers 7.12502
lthumb 9.73832 54.7692
rfemur -6.43206 5.3505 14.1522
rtibia 59.1885
rfoot 1.36303 2.05073
rtoes 2.82633
lfemur -3.53982 -0.102469 -24.2466
ltibia 16.7816
lfoot -1.1073 -12.3214
ltoes -20.3419
437
root 13.0273 18.2116 14.1276 290.542 -85.0993 65.7932
lowerback 10.1129 -2.72387 -3.86483
upperback 2.60842 -4.01748 4.0484
thorax -2.37488 -2.06261 6.89677
lowerneck 0.231034 -8.8604 -11.0876
upperneck 40.358 -20.2119 8.75138
head 16.8068 -10.3788 2.56025
rclavicle -3.37934e-015 3.02153e-014
rhumerus -53.8262 -28.8442 -59.4936
rradius 24.3921
rwrist 12.217
rhand -15.9138 5.82703
rfingers 7.12502
rthumb 10.2833 -23.9016
lclavicle -3.37934e-015 3.02153e-014
lhumerus -34.7358 7.79982 79.9216
lradius 30.4217
lwrist -5.42735
lhand -19.9331 26.6128
lfingers 7.12502
lthumb 6.40438 56.496
rfemur -4.5668 5.11821 15.9449
rtibia 57.5083
rfoot 1.48602 1.27654
rtoes 3.22154
lfemur -3.70696 0.506121 -22.4884
ltibia 17.0671
lfoot -1.141 -12.973
ltoes -19.5344
438
root 13.1545 18.1945 14.0972 284.538 -84.2577 72.1415
lowerback 9.78267 -2.42616 -4.73143
upperback 2.51894 -3.69131 3.68331
thorax -2.30161 -1.88908 6.95124
lowerneck 0.135309 -8.64905 -11.0579
upperneck 40.3572 -19.7733 8.7288
head 16.7449 -10.1837 2.6226
rclavicle -6.12257e-014 4.29375e-014
rhumerus -53.6831 -28.7408 -59.9514
rradius 24.6996
rwrist 12.0312
rhand -16.1011 5.88249
rfingers 7.12502
rthumb 10.1026 -23.855
lclavicle -6.12257e-014 4.29375e-014
lhumerus -35.042 7.87853 79.7004
lradius 30.2812
lwrist -5.41712
lhand -19.3978 26.9135
lfingers 7.12502
lthumb 6.92116 56.7803
rfemur -3.75085 4.81878 14.7866
rtibia 55.9863
rfoot 1.64344 0.808041
rtoes 2.75175
lfemur -4.60202 0.296941 -23.4703
ltibia 17.2435
lfoot -1.03369 -12.6914
ltoes -19.5659
439
root 13.2797 18.1794 14.0667 280.703 -84.0222 76.1703
lowerback 9.56909 -2.17439 -4.909
upperback 2.50997 -3.36395 3.51923
thorax -2.24273 -1.72346 6.83249
lowerneck 0.0742102 -8.44234 -11.2541
upperneck 40.2949 -19.4013 8.90509
head 16.7168 -10.0305 2.79609
rclavicle 8.22969e-014 5.08889e-014
rhumerus -53.3607 -28.6182 -60.3989
rradius 25.0012
rwrist 11.8166
rhand -15.5418 5.46884
rfingers 7.12502
rthumb 10.6422 -24.2417
lclavicle 8.22969e-014 5.08889e-014
lhumerus -35.2718 7.98679 79.5522
lradius 30.1487
lwrist -5.06137
lhand -19.3209 27.1519
lfingers 7.12502
lthumb 6.99536 57.0163
rfemur -2.76876 4.56012 14.3762
rtibia 54.3072
rfoot 1.80238 0.139409
rtoes 2.14972
lfemur -5.23996 -0.211013 -23.7339
ltibia 17.3135
lfoot -0.971027 -12.0917
ltoes -19.9591
440
root 13.4078 18.167 14.0319 278.053 -84.1707 78.9516
lowerback 9.43988 -1.986 -4.77955
upperback 2.52635 -3.09501 3.56818
thorax -2.19969 -1.59142 6.77602
lowerneck -0.118373 -8.18103 -11.6291
upperneck 40.3716 -18.9397 9.04861
head 16.7996 -9.86254 2.99064
rclavicle 3.26007e-014 -3.33958e-014
rhumerus -52.8115 -28.2596 -60.942
rradius 25.427
rwrist 11.0133
rhand -14.9347 4.98982
rfingers 7.12502
rthumb 11.2278 -24.6897
lclavicle 3.26007e-014 -3.33958e-014
lhumerus -35.4815 8.34925 79.4693
lradius 30.0327
lwrist -4.85427
lhand -19.1544 26.9529
lfingers 7.12502
lthumb 7.15607 56.8119
rfemur -1.7389 4.3762 14.5294
rtibia 52.6154
rfoot 1.74019 -0.731677
rtoes 1.7769
lfemur -5.63661 -0.486824 -23.4883
ltibia 16.9637
lfoot -0.613007 -11.7514
ltoes -20.234
